<svg width="24" height="24" viewBox="0 0 24 24" fill="none" xmlns="http://www.w3.org/2000/svg">
<g clip-path="url(#clip0_1259_1404)">
<path d="M7.71387 13.7143L11.9996 18M11.9996 18L16.2853 13.7143M11.9996 18V6" stroke="white" stroke-linecap="round" stroke-linejoin="round"/>
<path d="M11.9998 23.1426C14.9551 23.1426 17.7893 21.9687 19.879 19.879C21.9687 17.7893 23.1426 14.9551 23.1426 11.9998C23.1426 9.04452 21.9687 6.21029 19.879 4.1206C17.7893 2.03091 14.9551 0.856934 11.9998 0.856934C9.04452 0.856934 6.21029 2.03091 4.1206 4.1206C2.03091 6.21029 0.856934 9.04452 0.856934 11.9998C0.856934 14.9551 2.03091 17.7893 4.1206 19.879C6.21029 21.9687 9.04452 23.1426 11.9998 23.1426Z" stroke="white" stroke-linecap="round" stroke-linejoin="round"/>
</g>
<defs>
<clipPath id="clip0_1259_1404">
<rect width="24" height="24" fill="white"/>
</clipPath>
</defs>
</svg>
